<svg xmlns="http://www.w3.org/2000/svg" viewBox="0 0 170 146" role="img" aria-label="Crystaring glassblower logo mark">
  <rect x="22" y="10" width="126" height="126" rx="22" fill="#0f5a46"/>
  <path d="M74 27c10 1 16 7 18 17 1 8-2 14-9 19" fill="none" stroke="#f8f1df" stroke-width="6.4" stroke-linecap="round" stroke-linejoin="round"/>
  <path d="M73 64c-7 18-17 37-37 58" fill="none" stroke="#f8f1df" stroke-width="7.2" stroke-linecap="round" stroke-linejoin="round"/>
  <path d="M75 66c8 18 18 35 34 51" fill="none" stroke="#f8f1df" stroke-width="7.2" stroke-linecap="round" stroke-linejoin="round"/>
  <path d="M88 58l48 50" fill="none" stroke="#d6b46f" stroke-width="6.2" stroke-linecap="round"/>
  <path d="M92 56c8 1 14 6 17 14" fill="none" stroke="#f8f1df" stroke-width="5.4" stroke-linecap="round"/>
  <path d="M128 103c11 1 19 7 22 17-14 4-26 0-34-10" fill="none" stroke="#d6b46f" stroke-width="6.2" stroke-linecap="round" stroke-linejoin="round"/>
</svg>
